<svg width="1288" height="656" viewBox="0 0 1288 656" fill="none" xmlns="http://www.w3.org/2000/svg">
<circle cx="1095.54" cy="598.983" r="52.4858" stroke="#FF007A" stroke-width="8.8"/>
<circle cx="242.723" cy="481.893" r="3.31834" fill="#E7F0FC"/>
<circle cx="242.723" cy="501.803" r="3.31834" fill="#E7F0FC"/>
<circle cx="242.723" cy="521.713" r="3.31834" fill="#E7F0FC"/>
<circle cx="242.723" cy="541.623" r="3.31834" fill="#E7F0FC"/>
<circle cx="242.723" cy="561.533" r="3.31834" fill="#E7F0FC"/>
<circle cx="242.723" cy="581.443" r="3.31834" fill="#E7F0FC"/>
<circle cx="242.723" cy="601.353" r="3.31834" fill="#E7F0FC"/>
<circle cx="242.723" cy="621.263" r="3.31834" fill="#E7F0FC"/>
<circle cx="262.633" cy="481.893" r="3.31834" fill="#E7F0FC"/>
<circle cx="262.633" cy="501.803" r="3.31834" fill="#E7F0FC"/>
<circle cx="262.633" cy="521.713" r="3.31834" fill="#E7F0FC"/>
<circle cx="262.633" cy="541.623" r="3.31834" fill="#E7F0FC"/>
<circle cx="262.633" cy="561.533" r="3.31834" fill="#E7F0FC"/>
<circle cx="262.633" cy="581.443" r="3.31834" fill="#E7F0FC"/>
<circle cx="262.633" cy="601.353" r="3.31834" fill="#E7F0FC"/>
<circle cx="262.633" cy="621.263" r="3.31834" fill="#E7F0FC"/>
<circle cx="282.543" cy="481.893" r="3.31834" fill="#E7F0FC"/>
<circle cx="282.543" cy="501.803" r="3.31834" fill="#E7F0FC"/>
<circle cx="282.543" cy="521.713" r="3.31834" fill="#E7F0FC"/>
<circle cx="282.543" cy="541.623" r="3.31834" fill="#E7F0FC"/>
<circle cx="282.543" cy="561.533" r="3.31834" fill="#E7F0FC"/>
<circle cx="282.543" cy="581.443" r="3.31834" fill="#E7F0FC"/>
<circle cx="282.543" cy="601.353" r="3.31834" fill="#E7F0FC"/>
<circle cx="282.543" cy="621.263" r="3.31834" fill="#E7F0FC"/>
<circle cx="302.453" cy="481.893" r="3.31834" fill="#E7F0FC"/>
<circle cx="302.453" cy="501.803" r="3.31834" fill="#E7F0FC"/>
<circle cx="302.453" cy="521.713" r="3.31834" fill="#E7F0FC"/>
<circle cx="302.453" cy="541.623" r="3.31834" fill="#E7F0FC"/>
<circle cx="302.453" cy="561.533" r="3.31834" fill="#E7F0FC"/>
<circle cx="302.453" cy="581.443" r="3.31834" fill="#E7F0FC"/>
<circle cx="302.453" cy="601.353" r="3.31834" fill="#E7F0FC"/>
<circle cx="302.453" cy="621.263" r="3.31834" fill="#E7F0FC"/>
<circle cx="322.363" cy="481.893" r="3.31834" fill="#E7F0FC"/>
<circle cx="322.363" cy="501.803" r="3.31834" fill="#E7F0FC"/>
<circle cx="322.363" cy="521.713" r="3.31834" fill="#E7F0FC"/>
<circle cx="322.363" cy="541.623" r="3.31834" fill="#E7F0FC"/>
<circle cx="322.363" cy="561.533" r="3.31834" fill="#E7F0FC"/>
<circle cx="322.363" cy="581.443" r="3.31834" fill="#E7F0FC"/>
<circle cx="322.363" cy="601.353" r="3.31834" fill="#E7F0FC"/>
<circle cx="322.363" cy="621.263" r="3.31834" fill="#E7F0FC"/>
<circle cx="342.273" cy="481.893" r="3.31834" fill="#E7F0FC"/>
<circle cx="342.273" cy="501.803" r="3.31834" fill="#E7F0FC"/>
<circle cx="342.273" cy="521.713" r="3.31834" fill="#E7F0FC"/>
<circle cx="342.273" cy="541.623" r="3.31834" fill="#E7F0FC"/>
<circle cx="342.273" cy="561.533" r="3.31834" fill="#E7F0FC"/>
<circle cx="342.273" cy="581.443" r="3.31834" fill="#E7F0FC"/>
<circle cx="342.273" cy="601.353" r="3.31834" fill="#E7F0FC"/>
<circle cx="342.273" cy="621.263" r="3.31834" fill="#E7F0FC"/>
<circle cx="362.183" cy="481.893" r="3.31834" fill="#E7F0FC"/>
<circle cx="362.183" cy="501.803" r="3.31834" fill="#E7F0FC"/>
<circle cx="362.183" cy="521.713" r="3.31834" fill="#E7F0FC"/>
<circle cx="362.183" cy="541.623" r="3.31834" fill="#E7F0FC"/>
<circle cx="362.183" cy="561.533" r="3.31834" fill="#E7F0FC"/>
<circle cx="362.183" cy="581.443" r="3.31834" fill="#E7F0FC"/>
<circle cx="362.183" cy="601.353" r="3.31834" fill="#E7F0FC"/>
<circle cx="362.183" cy="621.263" r="3.31834" fill="#E7F0FC"/>
<circle cx="382.093" cy="481.893" r="3.31834" fill="#E7F0FC"/>
<circle cx="382.093" cy="501.803" r="3.31834" fill="#E7F0FC"/>
<circle cx="382.093" cy="521.713" r="3.31834" fill="#E7F0FC"/>
<circle cx="382.093" cy="541.623" r="3.31834" fill="#E7F0FC"/>
<circle cx="382.093" cy="561.533" r="3.31834" fill="#E7F0FC"/>
<circle cx="382.093" cy="581.443" r="3.31834" fill="#E7F0FC"/>
<circle cx="382.093" cy="601.353" r="3.31834" fill="#E7F0FC"/>
<circle cx="382.093" cy="621.263" r="3.31834" fill="#E7F0FC"/>
<circle cx="402.003" cy="481.893" r="3.31834" fill="#E7F0FC"/>
<circle cx="402.003" cy="501.803" r="3.31834" fill="#E7F0FC"/>
<circle cx="402.003" cy="521.713" r="3.31834" fill="#E7F0FC"/>
<circle cx="402.003" cy="541.623" r="3.31834" fill="#E7F0FC"/>
<circle cx="402.003" cy="561.533" r="3.31834" fill="#E7F0FC"/>
<circle cx="402.003" cy="581.443" r="3.31834" fill="#E7F0FC"/>
<circle cx="402.003" cy="601.353" r="3.31834" fill="#E7F0FC"/>
<circle cx="402.003" cy="621.263" r="3.31834" fill="#E7F0FC"/>
<circle cx="421.913" cy="481.893" r="3.31834" fill="#E7F0FC"/>
<circle cx="421.913" cy="501.803" r="3.31834" fill="#E7F0FC"/>
<circle cx="421.913" cy="521.713" r="3.31834" fill="#E7F0FC"/>
<circle cx="421.913" cy="541.623" r="3.31834" fill="#E7F0FC"/>
<circle cx="421.913" cy="561.533" r="3.31834" fill="#E7F0FC"/>
<circle cx="421.913" cy="581.443" r="3.31834" fill="#E7F0FC"/>
<circle cx="421.913" cy="601.353" r="3.31834" fill="#E7F0FC"/>
<circle cx="421.913" cy="621.263" r="3.31834" fill="#E7F0FC"/>
<circle cx="44.5709" cy="481.893" r="3.31834" fill="#E7F0FC"/>
<circle cx="44.5709" cy="501.803" r="3.31834" fill="#E7F0FC"/>
<circle cx="44.5709" cy="521.713" r="3.31834" fill="#E7F0FC"/>
<circle cx="44.5709" cy="541.623" r="3.31834" fill="#E7F0FC"/>
<circle cx="44.5709" cy="561.533" r="3.31834" fill="#E7F0FC"/>
<circle cx="44.5709" cy="581.443" r="3.31834" fill="#E7F0FC"/>
<circle cx="44.5709" cy="601.353" r="3.31834" fill="#E7F0FC"/>
<circle cx="44.5709" cy="621.263" r="3.31834" fill="#E7F0FC"/>
<circle cx="64.481" cy="481.893" r="3.31834" fill="#E7F0FC"/>
<circle cx="64.481" cy="501.803" r="3.31834" fill="#E7F0FC"/>
<circle cx="64.481" cy="521.713" r="3.31834" fill="#E7F0FC"/>
<circle cx="64.481" cy="541.623" r="3.31834" fill="#E7F0FC"/>
<circle cx="64.481" cy="561.533" r="3.31834" fill="#E7F0FC"/>
<circle cx="64.481" cy="581.443" r="3.31834" fill="#E7F0FC"/>
<circle cx="64.481" cy="601.353" r="3.31834" fill="#E7F0FC"/>
<circle cx="64.481" cy="621.263" r="3.31834" fill="#E7F0FC"/>
<circle cx="84.391" cy="481.893" r="3.31834" fill="#E7F0FC"/>
<circle cx="84.391" cy="501.803" r="3.31834" fill="#E7F0FC"/>
<circle cx="84.391" cy="521.713" r="3.31834" fill="#E7F0FC"/>
<circle cx="84.391" cy="541.623" r="3.31834" fill="#E7F0FC"/>
<circle cx="84.391" cy="561.533" r="3.31834" fill="#E7F0FC"/>
<circle cx="84.391" cy="581.443" r="3.31834" fill="#E7F0FC"/>
<circle cx="84.391" cy="601.353" r="3.31834" fill="#E7F0FC"/>
<circle cx="84.391" cy="621.263" r="3.31834" fill="#E7F0FC"/>
<circle cx="104.301" cy="481.893" r="3.31834" fill="#E7F0FC"/>
<circle cx="104.301" cy="501.803" r="3.31834" fill="#E7F0FC"/>
<circle cx="104.301" cy="521.713" r="3.31834" fill="#E7F0FC"/>
<circle cx="104.301" cy="541.623" r="3.31834" fill="#E7F0FC"/>
<circle cx="104.301" cy="561.533" r="3.31834" fill="#E7F0FC"/>
<circle cx="104.301" cy="581.443" r="3.31834" fill="#E7F0FC"/>
<circle cx="104.301" cy="601.353" r="3.31834" fill="#E7F0FC"/>
<circle cx="104.301" cy="621.263" r="3.31834" fill="#E7F0FC"/>
<circle cx="124.211" cy="481.893" r="3.31834" fill="#E7F0FC"/>
<circle cx="124.211" cy="501.803" r="3.31834" fill="#E7F0FC"/>
<circle cx="124.211" cy="521.713" r="3.31834" fill="#E7F0FC"/>
<circle cx="124.211" cy="541.623" r="3.31834" fill="#E7F0FC"/>
<circle cx="124.211" cy="561.533" r="3.31834" fill="#E7F0FC"/>
<circle cx="124.211" cy="581.443" r="3.31834" fill="#E7F0FC"/>
<circle cx="124.211" cy="601.353" r="3.31834" fill="#E7F0FC"/>
<circle cx="124.211" cy="621.263" r="3.31834" fill="#E7F0FC"/>
<circle cx="144.121" cy="481.893" r="3.31834" fill="#E7F0FC"/>
<circle cx="144.121" cy="501.803" r="3.31834" fill="#E7F0FC"/>
<circle cx="144.121" cy="521.713" r="3.31834" fill="#E7F0FC"/>
<circle cx="144.121" cy="541.623" r="3.31834" fill="#E7F0FC"/>
<circle cx="144.121" cy="561.533" r="3.31834" fill="#E7F0FC"/>
<circle cx="144.121" cy="581.443" r="3.31834" fill="#E7F0FC"/>
<circle cx="144.121" cy="601.353" r="3.31834" fill="#E7F0FC"/>
<circle cx="144.121" cy="621.263" r="3.31834" fill="#E7F0FC"/>
<circle cx="164.031" cy="481.893" r="3.31834" fill="#E7F0FC"/>
<circle cx="164.031" cy="501.803" r="3.31834" fill="#E7F0FC"/>
<circle cx="164.031" cy="521.713" r="3.31834" fill="#E7F0FC"/>
<circle cx="164.031" cy="541.623" r="3.31834" fill="#E7F0FC"/>
<circle cx="164.031" cy="561.533" r="3.31834" fill="#E7F0FC"/>
<circle cx="164.031" cy="581.443" r="3.31834" fill="#E7F0FC"/>
<circle cx="164.031" cy="601.353" r="3.31834" fill="#E7F0FC"/>
<circle cx="164.031" cy="621.263" r="3.31834" fill="#E7F0FC"/>
<circle cx="183.941" cy="481.893" r="3.31834" fill="#E7F0FC"/>
<circle cx="183.941" cy="501.803" r="3.31834" fill="#E7F0FC"/>
<circle cx="183.941" cy="521.713" r="3.31834" fill="#E7F0FC"/>
<circle cx="183.941" cy="541.623" r="3.31834" fill="#E7F0FC"/>
<circle cx="183.941" cy="561.533" r="3.31834" fill="#E7F0FC"/>
<circle cx="183.941" cy="581.443" r="3.31834" fill="#E7F0FC"/>
<circle cx="183.941" cy="601.353" r="3.31834" fill="#E7F0FC"/>
<circle cx="183.941" cy="621.263" r="3.31834" fill="#E7F0FC"/>
<circle cx="203.851" cy="481.893" r="3.31834" fill="#E7F0FC"/>
<circle cx="203.851" cy="501.803" r="3.31834" fill="#E7F0FC"/>
<circle cx="203.851" cy="521.713" r="3.31834" fill="#E7F0FC"/>
<circle cx="203.851" cy="541.623" r="3.31834" fill="#E7F0FC"/>
<circle cx="203.851" cy="561.533" r="3.31834" fill="#E7F0FC"/>
<circle cx="203.851" cy="581.443" r="3.31834" fill="#E7F0FC"/>
<circle cx="203.851" cy="601.353" r="3.31834" fill="#E7F0FC"/>
<circle cx="203.851" cy="621.263" r="3.31834" fill="#E7F0FC"/>
<circle cx="223.761" cy="481.893" r="3.31834" fill="#E7F0FC"/>
<circle cx="223.761" cy="501.803" r="3.31834" fill="#E7F0FC"/>
<circle cx="223.761" cy="521.713" r="3.31834" fill="#E7F0FC"/>
<circle cx="223.761" cy="541.623" r="3.31834" fill="#E7F0FC"/>
<circle cx="223.761" cy="561.533" r="3.31834" fill="#E7F0FC"/>
<circle cx="223.761" cy="581.443" r="3.31834" fill="#E7F0FC"/>
<circle cx="223.761" cy="601.353" r="3.31834" fill="#E7F0FC"/>
<circle cx="223.761" cy="621.263" r="3.31834" fill="#E7F0FC"/>
<path d="M295.343 150.734C295.343 67.891 362.5 0.733582 445.343 0.733582H1288V587.606H295.343V150.734Z" fill="#F9FAFC"/>
<path d="M169.246 321.19L0.484436 321.19L0.484442 252.429C0.484447 197.201 45.256 152.429 100.484 152.429L169.246 152.429L169.246 321.19Z" fill="#FFF5DB"/>
</svg>
